<mxfile host="app.diagrams.net" modified="2024-01-29T07:40:34.428Z" agent="Mozilla/5.0 (X11; Linux x86_64) AppleWebKit/537.36 (KHTML, like Gecko) Chrome/114.0.0.0 Safari/537.36" etag="2pgr8b6OInaoLf28Yvkp" version="23.0.2" type="github">
  <diagram name="Page-1" id="pK0N7vYVH7gunoto8MBb">
    <mxGraphModel dx="1052" dy="627" grid="1" gridSize="10" guides="1" tooltips="1" connect="1" arrows="1" fold="1" page="1" pageScale="1" pageWidth="850" pageHeight="1100" math="0" shadow="0">
      <root>
        <mxCell id="0" />
        <mxCell id="1" parent="0" />
        <mxCell id="axpPfyErsh91YPI84-u5-76" value="" style="edgeStyle=orthogonalEdgeStyle;rounded=0;orthogonalLoop=1;jettySize=auto;html=1;" edge="1" parent="1" source="axpPfyErsh91YPI84-u5-37" target="axpPfyErsh91YPI84-u5-75">
          <mxGeometry relative="1" as="geometry" />
        </mxCell>
        <mxCell id="axpPfyErsh91YPI84-u5-37" value="Isi form pengunjung" style="whiteSpace=wrap;html=1;rounded=1;" vertex="1" parent="1">
          <mxGeometry x="400" y="300" width="120" height="50" as="geometry" />
        </mxCell>
        <mxCell id="axpPfyErsh91YPI84-u5-39" value="Isi daftar kunjungan" style="whiteSpace=wrap;html=1;rounded=1;" vertex="1" parent="1">
          <mxGeometry x="760" y="300" width="120" height="50" as="geometry" />
        </mxCell>
        <mxCell id="axpPfyErsh91YPI84-u5-67" value="" style="edgeStyle=orthogonalEdgeStyle;rounded=0;orthogonalLoop=1;jettySize=auto;html=1;" edge="1" parent="1" source="axpPfyErsh91YPI84-u5-64" target="axpPfyErsh91YPI84-u5-66">
          <mxGeometry relative="1" as="geometry" />
        </mxCell>
        <mxCell id="axpPfyErsh91YPI84-u5-64" value="User" style="rounded=1;whiteSpace=wrap;html=1;" vertex="1" parent="1">
          <mxGeometry x="10" y="380" width="90" height="40" as="geometry" />
        </mxCell>
        <mxCell id="axpPfyErsh91YPI84-u5-66" value="Mengunjungi perpus" style="whiteSpace=wrap;html=1;rounded=1;" vertex="1" parent="1">
          <mxGeometry x="165" y="370" width="120" height="60" as="geometry" />
        </mxCell>
        <mxCell id="axpPfyErsh91YPI84-u5-72" value="" style="endArrow=none;html=1;rounded=0;" edge="1" parent="1">
          <mxGeometry width="50" height="50" relative="1" as="geometry">
            <mxPoint x="285" y="400" as="sourcePoint" />
            <mxPoint x="340" y="400" as="targetPoint" />
          </mxGeometry>
        </mxCell>
        <mxCell id="axpPfyErsh91YPI84-u5-73" value="" style="endArrow=none;html=1;rounded=0;" edge="1" parent="1">
          <mxGeometry width="50" height="50" relative="1" as="geometry">
            <mxPoint x="340" y="480" as="sourcePoint" />
            <mxPoint x="340" y="320" as="targetPoint" />
          </mxGeometry>
        </mxCell>
        <mxCell id="axpPfyErsh91YPI84-u5-74" value="" style="endArrow=classic;html=1;rounded=0;" edge="1" parent="1">
          <mxGeometry width="50" height="50" relative="1" as="geometry">
            <mxPoint x="340" y="320" as="sourcePoint" />
            <mxPoint x="400" y="320" as="targetPoint" />
          </mxGeometry>
        </mxCell>
        <mxCell id="axpPfyErsh91YPI84-u5-77" value="" style="edgeStyle=orthogonalEdgeStyle;rounded=0;orthogonalLoop=1;jettySize=auto;html=1;" edge="1" parent="1" source="axpPfyErsh91YPI84-u5-75" target="axpPfyErsh91YPI84-u5-39">
          <mxGeometry relative="1" as="geometry" />
        </mxCell>
        <mxCell id="axpPfyErsh91YPI84-u5-75" value="Kirim" style="whiteSpace=wrap;html=1;rounded=1;" vertex="1" parent="1">
          <mxGeometry x="600" y="300" width="100" height="50" as="geometry" />
        </mxCell>
        <mxCell id="axpPfyErsh91YPI84-u5-80" value="" style="endArrow=none;html=1;rounded=0;" edge="1" parent="1">
          <mxGeometry width="50" height="50" relative="1" as="geometry">
            <mxPoint x="460" y="400" as="sourcePoint" />
            <mxPoint x="830" y="400" as="targetPoint" />
          </mxGeometry>
        </mxCell>
        <mxCell id="axpPfyErsh91YPI84-u5-83" value="" style="endArrow=none;html=1;rounded=0;" edge="1" parent="1">
          <mxGeometry width="50" height="50" relative="1" as="geometry">
            <mxPoint x="830" y="400" as="sourcePoint" />
            <mxPoint x="830" y="350" as="targetPoint" />
          </mxGeometry>
        </mxCell>
        <mxCell id="axpPfyErsh91YPI84-u5-84" value="" style="endArrow=classic;html=1;rounded=0;" edge="1" parent="1">
          <mxGeometry width="50" height="50" relative="1" as="geometry">
            <mxPoint x="460" y="400" as="sourcePoint" />
            <mxPoint x="460" y="350" as="targetPoint" />
          </mxGeometry>
        </mxCell>
        <mxCell id="axpPfyErsh91YPI84-u5-87" value="" style="endArrow=classic;html=1;rounded=0;" edge="1" parent="1">
          <mxGeometry width="50" height="50" relative="1" as="geometry">
            <mxPoint x="340" y="480" as="sourcePoint" />
            <mxPoint x="400" y="480" as="targetPoint" />
          </mxGeometry>
        </mxCell>
        <mxCell id="axpPfyErsh91YPI84-u5-88" value="Pencarian buku yang dipinjam" style="whiteSpace=wrap;html=1;rounded=1;" vertex="1" parent="1">
          <mxGeometry x="400" y="460" width="120" height="45" as="geometry" />
        </mxCell>
        <mxCell id="axpPfyErsh91YPI84-u5-96" value="" style="edgeStyle=orthogonalEdgeStyle;rounded=0;orthogonalLoop=1;jettySize=auto;html=1;" edge="1" parent="1" source="axpPfyErsh91YPI84-u5-90" target="axpPfyErsh91YPI84-u5-95">
          <mxGeometry relative="1" as="geometry" />
        </mxCell>
        <mxCell id="axpPfyErsh91YPI84-u5-90" value="Masukan judul buku" style="whiteSpace=wrap;html=1;rounded=1;" vertex="1" parent="1">
          <mxGeometry x="600" y="460" width="120" height="50" as="geometry" />
        </mxCell>
        <mxCell id="axpPfyErsh91YPI84-u5-94" value="" style="endArrow=classic;html=1;rounded=0;" edge="1" parent="1">
          <mxGeometry width="50" height="50" relative="1" as="geometry">
            <mxPoint x="520" y="480" as="sourcePoint" />
            <mxPoint x="600" y="480" as="targetPoint" />
          </mxGeometry>
        </mxCell>
        <mxCell id="axpPfyErsh91YPI84-u5-99" value="" style="edgeStyle=orthogonalEdgeStyle;rounded=0;orthogonalLoop=1;jettySize=auto;html=1;" edge="1" parent="1" source="axpPfyErsh91YPI84-u5-95" target="axpPfyErsh91YPI84-u5-98">
          <mxGeometry relative="1" as="geometry" />
        </mxCell>
        <mxCell id="axpPfyErsh91YPI84-u5-95" value="Hasil pencarian judul buku" style="whiteSpace=wrap;html=1;rounded=1;" vertex="1" parent="1">
          <mxGeometry x="800" y="460" width="120" height="50" as="geometry" />
        </mxCell>
        <mxCell id="axpPfyErsh91YPI84-u5-97" style="edgeStyle=orthogonalEdgeStyle;rounded=0;orthogonalLoop=1;jettySize=auto;html=1;exitX=0.5;exitY=1;exitDx=0;exitDy=0;" edge="1" parent="1" source="axpPfyErsh91YPI84-u5-95" target="axpPfyErsh91YPI84-u5-95">
          <mxGeometry relative="1" as="geometry" />
        </mxCell>
        <mxCell id="axpPfyErsh91YPI84-u5-98" value="Rincian buku yang dipinjam" style="whiteSpace=wrap;html=1;rounded=1;" vertex="1" parent="1">
          <mxGeometry x="800" y="585" width="120" height="55" as="geometry" />
        </mxCell>
        <mxCell id="axpPfyErsh91YPI84-u5-101" value="" style="endArrow=none;html=1;rounded=0;" edge="1" parent="1">
          <mxGeometry width="50" height="50" relative="1" as="geometry">
            <mxPoint x="460" y="620" as="sourcePoint" />
            <mxPoint x="460" y="505" as="targetPoint" />
          </mxGeometry>
        </mxCell>
        <mxCell id="axpPfyErsh91YPI84-u5-103" value="" style="endArrow=classic;html=1;rounded=0;entryX=0;entryY=0.636;entryDx=0;entryDy=0;entryPerimeter=0;" edge="1" parent="1" target="axpPfyErsh91YPI84-u5-98">
          <mxGeometry width="50" height="50" relative="1" as="geometry">
            <mxPoint x="460" y="620" as="sourcePoint" />
            <mxPoint x="510" y="570" as="targetPoint" />
          </mxGeometry>
        </mxCell>
      </root>
    </mxGraphModel>
  </diagram>
</mxfile>
